<?xml version="1.0" encoding="UTF-8"?>
<svg width="345px" height="689px" viewBox="0 0 345 689" version="1.1" xmlns="http://www.w3.org/2000/svg" xmlns:xlink="http://www.w3.org/1999/xlink">
    <title>Artboard</title>
    <g id="Artboard" stroke="none" stroke-width="1" fill="none" fill-rule="evenodd">
        <rect fill="#E3E3E3" x="0" y="0" width="345" height="689"></rect>
        <path d="M220.691176,289 C225.280013,289 229,292.714378 229,297.296296 L229,392.703704 C229,397.285622 225.280013,401 220.691176,401 L124.308824,401 C119.719987,401 116,397.285622 116,392.703704 L116,297.296296 C116,292.714378 119.719987,289 124.308824,289 L220.691176,289 Z M187.749923,331.43216 C186.640637,330.680832 185.135067,330.935428 184.338761,331.991874 L184.280386,332.072607 L161.849463,364.425738 L148.228664,348.188038 C148.051213,347.976496 147.839247,347.795747 147.601522,347.653257 C146.451001,346.963646 144.960994,347.301404 144.225812,348.401539 L144.173382,348.483394 L128.361739,374.25411 C128.125115,374.639773 128,375.082179 128,375.533217 C128,376.864621 129.067173,377.949666 130.402187,377.998299 L130.495752,378 L215.504012,378 C216.007592,378 216.499392,377.84943 216.914797,377.568073 C218.024082,376.816745 218.327264,375.337067 217.617871,374.221755 L217.562765,374.138807 L188.397891,332.072607 C188.223745,331.821427 188.004054,331.604285 187.749923,331.43216 Z M154.5,309 C148.148725,309 143,314.148725 143,320.5 C143,326.851275 148.148725,332 154.5,332 C160.851275,332 166,326.851275 166,320.5 C166,314.148725 160.851275,309 154.5,309 Z" id="Shape" fill="#ABABAB"></path>
    </g>
</svg>