<?xml version="1.0" encoding="UTF-8"?>
<svg width="580px" height="966px" viewBox="0 0 580 966" version="1.1" xmlns="http://www.w3.org/2000/svg" xmlns:xlink="http://www.w3.org/1999/xlink">
    <title>Group 5</title>
    <defs>
        <text id="text-1" font-family="Menlo-Regular, Menlo" font-size="60" font-weight="normal" letter-spacing="-1.42307692" fill="#FFFFFF">
            <tspan x="57.4002404" y="62">sold out</tspan>
        </text>
        <filter x="-0.7%" y="-2.9%" width="102.9%" height="111.4%" filterUnits="objectBoundingBox" id="filter-2">
            <feOffset dx="4" dy="4" in="SourceAlpha" result="shadowOffsetOuter1"></feOffset>
            <feColorMatrix values="0 0 0 0 0   0 0 0 0 0   0 0 0 0 0  0 0 0 0.317181354 0" type="matrix" in="shadowOffsetOuter1"></feColorMatrix>
        </filter>
    </defs>
    <g id="Page-1" stroke="none" stroke-width="1" fill="none" fill-rule="evenodd">
        <g id="Group-5">
            <g id="Group-3">
                <rect id="Rectangle" fill="#FFFFFF" x="0" y="0" width="580" height="966"></rect>
                <g id="slime" transform="translate(142.000000, 370.000000)">
                    <path d="M148.5,1 C186.464485,1 217.457716,12.2093382 241.278614,30.5902429 C267.868702,51.1079358 285.516439,80.5498325 293.975228,113.250431 C297.620038,127.3408 296.195487,140.818936 290.876178,153.224245 C285.094269,166.708393 274.7234,178.922153 261.277034,189.297764 C232.795636,211.274847 190.531705,225 148.5,225 C106.468295,225 64.2043641,211.274847 35.7229662,189.297764 C22.2765998,178.922153 11.9057306,166.708393 6.12382212,153.224245 C0.804512504,140.818936 -0.620038075,127.3408 3.02477186,113.250431 C11.4835613,80.5498325 29.131298,51.1079358 55.7213859,30.5902429 C79.5422841,12.2093382 110.535515,1 148.5,1 Z" id="Oval" stroke="#34D912" stroke-width="2" fill="#E6FFD9"></path>
                    <path d="M146.5,24 C154.380371,24 161.926043,24.5152027 169.1349,25.5024882 C156.486862,29.2327179 147.402817,39.4954316 147.402817,51.5714286 C147.402817,66.7987081 161.8465,79.1428571 179.663686,79.1428571 C187.922058,79.1428571 195.455673,76.490868 201.16218,72.1290044 C204.809006,77.7151593 211.361315,81.4404762 218.837599,81.4404762 C230.291505,81.4404762 239.57673,72.696704 239.57673,61.9107143 C239.57673,60.151404 239.329695,58.4464271 238.866509,56.8248655 C257.752893,73.8162574 270.570609,96.1006327 277.164953,120.5 C291.568964,173.795478 218.664261,217 146.5,217 C74.335739,217 1.43103628,173.795478 15.8350469,120.5 C30.2390574,67.2045216 74.335739,24 146.5,24 Z" id="Path" fill-opacity="0.8" fill="#A1FF6D"></path>
                    <path d="M126.037209,62.6465093 C126.037209,81.7952536 146.086523,97.3183779 170.818605,97.3183779 C182.845761,97.3183779 193.765511,93.6473835 201.810664,87.6736362 C209.319701,93.5496553 220.923174,97.3183779 233.944186,97.3183779 C240.003323,97.3183779 245.75551,96.5023101 250.931249,95.0375215 C254.941441,102.276145 258.098097,109.953454 260.393468,117.9048 C273.003772,161.587873 209.177768,197 146,197 C82.8222319,197 18.996228,161.587873 31.6065316,117.9048 C43.6800872,76.0810639 79.5829087,41.839165 138.066323,38.9999767 C130.603967,45.1945145 126.037209,53.5075968 126.037209,62.6465093 Z" id="Combined-Shape" fill-opacity="0.8" fill="#6BE856"></path>
                    <ellipse id="Oval" fill="#E6FFD9" transform="translate(246.599601, 99.094877) rotate(-30.000000) translate(-246.599601, -99.094877) " cx="246.599601" cy="99.0948768" rx="13.8383104" ry="16.1360484"></ellipse>
                    <path d="M148,181 C186.659932,181 218,163.525615 218,155.276596 C218,147.027577 186.659932,142 148,142 C109.340068,142 78,147.027577 78,155.276596 C78,163.525615 109.340068,181 148,181 Z" id="Oval" fill="#50DC38"></path>
                    <ellipse id="Oval" fill-opacity="0.9" fill="#E6FFD9" transform="translate(59.732415, 155.555911) rotate(-345.000000) translate(-59.732415, -155.555911) " cx="59.732415" cy="155.555911" rx="25.3752056" ry="19.5899299"></ellipse>
                </g>
            </g>
            <g id="Group-4" transform="translate(290.000000, 483.500000) rotate(-20.000000) translate(-290.000000, -483.500000) translate(94.000000, 442.000000)">
                <rect id="Rectangle" fill="#FFA0A0" opacity="0.849999964" transform="translate(196.000000, 41.500000) rotate(-360.000000) translate(-196.000000, -41.500000) " x="0" y="0" width="392" height="83"></rect>
                <g id="sold-out" fill="#FFFFFF" fill-opacity="1">
                    <use filter="url(#filter-2)" xlink:href="#text-1"></use>
                    <use xlink:href="#text-1"></use>
                </g>
            </g>
        </g>
    </g>
</svg>