<?xml version="1.0" encoding="UTF-8"?>
<svg width="129px" height="30px" viewBox="0 0 129 30" version="1.1" xmlns="http://www.w3.org/2000/svg" xmlns:xlink="http://www.w3.org/1999/xlink">
    <title>wordmark</title>
    <g id="wordmark" stroke="none" stroke-width="1" fill="none" fill-rule="evenodd">
        <path d="M7.796875,27.859375 C9.984375,27.859375 11.6927083,27.3723958 12.921875,26.3984375 C14.1510417,25.4244792 14.765625,24.0729167 14.765625,22.34375 C14.765625,21.0416667 14.3984375,19.984375 13.6640625,19.171875 C12.9296875,18.359375 11.8489583,17.8177083 10.421875,17.546875 L10.421875,17.546875 L9.265625,17.328125 C7.359375,16.9635417 6.16666667,16.5885417 5.6875,16.203125 C5.20833333,15.8177083 4.96875,15.234375 4.96875,14.453125 C4.96875,13.5885417 5.2890625,12.9453125 5.9296875,12.5234375 C6.5703125,12.1015625 7.54166667,11.890625 8.84375,11.890625 C9.70833333,11.890625 10.5572917,12.0104167 11.390625,12.25 C12.2239583,12.4895833 13.0520833,12.8489583 13.875,13.328125 L13.875,13.328125 L13.875,10.515625 C13.0416667,10.171875 12.1927083,9.9140625 11.328125,9.7421875 C10.4635417,9.5703125 9.5625,9.484375 8.625,9.484375 C6.52083333,9.484375 4.90104167,9.94010417 3.765625,10.8515625 C2.63020833,11.7630208 2.0625,13.0572917 2.0625,14.734375 C2.0625,16.0572917 2.44270833,17.1015625 3.203125,17.8671875 C3.96354167,18.6328125 5.171875,19.1770833 6.828125,19.5 L6.828125,19.5 L7.90625,19.71875 L8.03125,19.75 C10.5833333,20.2604167 11.859375,21.1822917 11.859375,22.515625 C11.859375,23.4427083 11.5104167,24.1640625 10.8125,24.6796875 C10.1145833,25.1953125 9.13020833,25.453125 7.859375,25.453125 C6.984375,25.453125 6.05729167,25.3151042 5.078125,25.0390625 C4.09895833,24.7630208 3.07291667,24.3489583 2,23.796875 L2,23.796875 L2,26.765625 C3.10416667,27.1302083 4.13020833,27.4036458 5.078125,27.5859375 C6.02604167,27.7682292 6.93229167,27.859375 7.796875,27.859375 Z M34.5847756,27.40625 L34.5847756,24.984375 L31.2254006,24.984375 C30.2983173,24.984375 29.5977965,24.65625 29.1238381,24 C28.6498798,23.34375 28.4129006,22.3697917 28.4129006,21.078125 L28.4129006,21.078125 L28.4129006,3 L20.9285256,3 L20.9285256,5.25 L25.5379006,5.25 L25.5379006,21.078125 C25.5379006,23.0989583 26.0092548,24.6588542 26.9519631,25.7578125 C27.8946715,26.8567708 29.2254006,27.40625 30.9441506,27.40625 L30.9441506,27.40625 L34.5847756,27.40625 Z M47.9820513,6.796875 L47.9820513,3.171875 L45.1070513,3.171875 L45.1070513,6.796875 L47.9820513,6.796875 Z M53.6851763,27.40625 L53.6851763,25.171875 L47.9820513,25.171875 L47.9820513,9.96875 L40.6226763,9.96875 L40.6226763,12.203125 L45.1070513,12.203125 L45.1070513,25.171875 L39.4039263,25.171875 L39.4039263,27.40625 L53.6851763,27.40625 Z M58.5043269,27.40625 L58.5043269,17.390625 C58.5043269,15.0052083 58.6527644,13.4921875 58.9496394,12.8515625 C59.2465144,12.2109375 59.7751603,11.890625 60.5355769,11.890625 C61.3064103,11.890625 61.8402644,12.1822917 62.1371394,12.765625 C62.4340144,13.3489583 62.5824519,14.890625 62.5824519,17.390625 L62.5824519,17.390625 L62.5824519,27.40625 L65.2074519,27.40625 L65.2074519,17.390625 C65.2074519,15.0052083 65.3610978,13.4921875 65.6683894,12.8515625 C65.9756811,12.2109375 66.5459936,11.890625 67.3793269,11.890625 C68.1084936,11.890625 68.6110978,12.1901042 68.8871394,12.7890625 C69.1631811,13.3880208 69.3012019,14.921875 69.3012019,17.390625 L69.3012019,17.390625 L69.3012019,27.40625 L71.9262019,27.40625 L71.9262019,17.265625 C71.9262019,14.2552083 71.6371394,12.2057292 71.0590144,11.1171875 C70.4808894,10.0286458 69.4887019,9.484375 68.0824519,9.484375 C67.3116186,9.484375 66.6527644,9.6640625 66.1058894,10.0234375 C65.5590144,10.3828125 65.1084936,10.9375 64.7543269,11.6875 C64.4626603,10.9479167 64.0538061,10.3958333 63.5277644,10.03125 C63.0017228,9.66666667 62.3428686,9.484375 61.5512019,9.484375 C60.8949519,9.484375 60.3090144,9.6484375 59.7933894,9.9765625 C59.2777644,10.3046875 58.8480769,10.78125 58.5043269,11.40625 L58.5043269,11.40625 L58.5043269,9.90625 L55.8949519,9.90625 L55.8949519,27.40625 L58.5043269,27.40625 Z M77.0109776,27.40625 L77.0109776,17.390625 C77.0109776,15.0052083 77.1594151,13.4921875 77.4562901,12.8515625 C77.7531651,12.2109375 78.2818109,11.890625 79.0422276,11.890625 C79.8130609,11.890625 80.3469151,12.1822917 80.6437901,12.765625 C80.9406651,13.3489583 81.0891026,14.890625 81.0891026,17.390625 L81.0891026,17.390625 L81.0891026,27.40625 L83.7141026,27.40625 L83.7141026,17.390625 C83.7141026,15.0052083 83.8677484,13.4921875 84.1750401,12.8515625 C84.4823317,12.2109375 85.0526442,11.890625 85.8859776,11.890625 C86.6151442,11.890625 87.1177484,12.1901042 87.3937901,12.7890625 C87.6698317,13.3880208 87.8078526,14.921875 87.8078526,17.390625 L87.8078526,27.40625 L90.4328526,27.40625 L90.4328526,17.265625 C90.4328526,14.2552083 90.1437901,12.2057292 89.5656651,11.1171875 C88.9875401,10.0286458 87.9953526,9.484375 86.5891026,9.484375 C85.8182692,9.484375 85.1594151,9.6640625 84.6125401,10.0234375 C84.0656651,10.3828125 83.6151442,10.9375 83.2609776,11.6875 C82.9693109,10.9479167 82.5604567,10.3958333 82.0344151,10.03125 C81.5083734,9.66666667 80.8495192,9.484375 80.0578526,9.484375 C79.4016026,9.484375 78.8156651,9.6484375 78.3000401,9.9765625 C77.7844151,10.3046875 77.3547276,10.78125 77.0109776,11.40625 L77.0109776,11.40625 L77.0109776,9.90625 L74.4016026,9.90625 L74.4016026,27.40625 L77.0109776,27.40625 Z M95.5176282,27.40625 L95.5176282,17.390625 C95.5176282,15.0052083 95.6660657,13.4921875 95.9629407,12.8515625 C96.2598157,12.2109375 96.7884615,11.890625 97.5488782,11.890625 C98.3197115,11.890625 98.8535657,12.1822917 99.1504407,12.765625 C99.4473157,13.3489583 99.5957532,14.890625 99.5957532,17.390625 L99.5957532,17.390625 L99.5957532,27.40625 L102.220753,27.40625 L102.220753,17.390625 C102.220753,15.0052083 102.374399,13.4921875 102.681691,12.8515625 C102.988982,12.2109375 103.559295,11.890625 104.392628,11.890625 C105.121795,11.890625 105.624399,12.1901042 105.900441,12.7890625 C106.176482,13.3880208 106.314503,14.921875 106.314503,17.390625 L106.314503,17.390625 L106.314503,27.40625 L108.939503,27.40625 L108.939503,17.265625 C108.939503,14.2552083 108.650441,12.2057292 108.072316,11.1171875 C107.494191,10.0286458 106.502003,9.484375 105.095753,9.484375 C104.32492,9.484375 103.666066,9.6640625 103.119191,10.0234375 C102.572316,10.3828125 102.121795,10.9375 101.767628,11.6875 C101.475962,10.9479167 101.067107,10.3958333 100.541066,10.03125 C100.015024,9.66666667 99.3561699,9.484375 98.5645032,9.484375 C97.9082532,9.484375 97.3223157,9.6484375 96.8066907,9.9765625 C96.2910657,10.3046875 95.8613782,10.78125 95.5176282,11.40625 L95.5176282,11.40625 L95.5176282,9.90625 L92.9082532,9.90625 L92.9082532,27.40625 L95.5176282,27.40625 Z M120.305529,27.859375 C121.253446,27.859375 122.235216,27.7473958 123.250841,27.5234375 C124.266466,27.2994792 125.321154,26.9635417 126.414904,26.515625 L126.414904,26.515625 L126.414904,23.65625 C125.279487,24.25 124.211779,24.6927083 123.211779,24.984375 C122.211779,25.2760417 121.253446,25.421875 120.336779,25.421875 C118.524279,25.421875 117.120633,24.9010417 116.125841,23.859375 C115.13105,22.8177083 114.675321,21.1041667 114.758654,18.71875 L114.758654,18.71875 L114.758654,18.625 L127.211779,18.625 L127.211779,17.21875 C127.128446,15.0833333 126.44355,13.2604167 125.157091,11.75 C123.870633,10.2395833 122.112821,9.484375 119.883654,9.484375 C117.383654,9.484375 115.383654,10.3177083 113.883654,11.984375 C112.383654,13.6510417 111.633654,15.8802083 111.633654,18.671875 C111.633654,21.5364583 112.399279,23.7838542 113.930529,25.4140625 C115.461779,27.0442708 117.586779,27.859375 120.305529,27.859375 Z M114.868029,16.390625 C114.951362,15.2447917 115.440946,14.2135417 116.336779,13.296875 C117.232612,12.3802083 118.373237,11.921875 119.758654,11.921875 C121.175321,11.921875 122.261258,12.3619792 123.016466,13.2421875 C123.771675,14.1223958 124.211779,15.1666667 124.336779,16.375 L124.336779,16.375 L114.868029,16.390625 Z" id="slimmme" stroke="#000000" stroke-width="0.5" fill="#000000" fill-rule="nonzero"></path>
    </g>
</svg>