<?xml version="1.0" encoding="UTF-8"?>
<svg width="129px" height="30px" viewBox="0 0 129 30" version="1.1" xmlns="http://www.w3.org/2000/svg" xmlns:xlink="http://www.w3.org/1999/xlink">
    <title>wordmark</title>
    <g id="wordmark" stroke="none" stroke-width="1" fill="none" fill-rule="evenodd">
        <path d="M9.23265433,28.3324512 C11.5936888,28.3324512 13.3618758,27.8899089 14.5372153,27.0048243 C15.7125549,26.1197397 16.3002246,24.7921128 16.3002246,23.0219435 C16.3002246,21.5485079 15.9144855,20.3794799 15.1430071,19.5148597 C14.3715287,18.6502395 13.1573564,18.0235177 11.5004901,17.6346944 L11.5004901,17.6346944 L10.1957079,17.3277287 L10.0248435,17.2816838 C7.80878485,16.7700742 6.70075551,16.1049817 6.70075551,15.2864063 C6.70075551,14.7134036 6.95964087,14.2810935 7.47741159,13.989476 C7.99518231,13.6978585 8.76148297,13.5520498 9.77631358,13.5520498 C10.68759,13.5520498 11.5962777,13.6876263 12.5023764,13.9587794 C13.4084752,14.2299325 14.2809188,14.6315461 15.1197074,15.16362 L15.1197074,15.16362 L15.1197074,11.2344583 C14.1980755,10.9172603 13.2479663,10.6793619 12.2693796,10.5207629 C11.2907929,10.3621639 10.3096174,10.2828644 9.32585306,10.2828644 C7.13050521,10.2828644 5.42703954,10.7433131 4.21545606,11.6642104 C3.00387258,12.5851076 2.39808084,13.8743638 2.39808084,15.531979 C2.39808084,16.9235571 2.79676429,18.0337499 3.5941312,18.8625575 C4.39149811,19.691365 5.66003637,20.3001805 7.39974598,20.6890037 L7.39974598,20.6890037 L8.65792883,20.9652729 C10.1180423,21.3131675 11.042263,21.6405976 11.430591,21.9475634 C11.8189191,22.2545291 12.0130831,22.6945134 12.0130831,23.2675161 C12.0130831,23.8507511 11.7386646,24.2958514 11.1898276,24.6028172 C10.6409907,24.909783 9.83326836,25.0632659 8.76666068,25.0632659 C7.79325173,25.0632659 6.78618768,24.9148991 5.74546854,24.6181655 C4.70474939,24.3214319 3.68215222,23.8916799 2.67767703,23.3289093 L2.67767703,23.3289093 L2.67767703,27.258071 C3.80641719,27.6161978 4.91962424,27.8847928 6.01729816,28.0638562 C7.11497209,28.2429195 8.18675748,28.3324512 9.23265433,28.3324512 Z M35.0236423,27.8873509 L35.0236423,24.433986 L31.3888918,24.433986 C30.3740612,24.433986 29.6543599,24.1526008 29.229788,23.5898302 C28.805216,23.0270596 28.59293,22.0703497 28.59293,20.7197003 L28.59293,20.7197003 L28.59293,4.00541461 L19.4283882,4.00541461 L19.4283882,7.45877943 L24.0417253,7.45877943 L24.0417253,20.7197003 C24.0417253,23.2879805 24.5128967,25.124659 25.4552394,26.2297357 C26.3975821,27.3348125 27.9508943,27.8873509 30.1151759,27.8873509 L30.1151759,27.8873509 L35.0236423,27.8873509 Z M48.776461,7.58156573 L48.776461,2.33245121 L44.2252564,2.33245121 L44.2252564,7.58156573 L48.776461,7.58156573 Z M54.4305173,27.8873509 L54.4305173,24.433986 L48.776461,24.433986 L48.776461,10.6972682 L39.7672505,10.6972682 L39.7672505,14.150633 L44.2252564,14.150633 L44.2252564,24.433986 L38.5556671,24.433986 L38.5556671,27.8873509 L54.4305173,27.8873509 Z M59.6401192,27.8873509 L59.6401192,16.8519317 C59.6401192,15.5729077 59.7384956,14.7185197 59.9352485,14.2887676 C60.1320014,13.8590156 60.4892632,13.6441395 61.0070339,13.6441395 C61.5248046,13.6441395 61.8872441,13.8641317 62.0943524,14.3041159 C62.3014607,14.7441002 62.4050148,15.5933721 62.4050148,16.8519317 L62.4050148,16.8519317 L62.4050148,27.8873509 L66.0863646,27.8873509 L66.0863646,16.8519317 C66.0863646,15.5933721 66.1899188,14.7441002 66.3970271,14.3041159 C66.6041354,13.8641317 66.9665749,13.6441395 67.4843456,13.6441395 C68.0021163,13.6441395 68.3593781,13.8590156 68.556131,14.2887676 C68.7528838,14.7185197 68.8512603,15.5729077 68.8512603,16.8519317 L68.8512603,16.8519317 L68.8512603,27.8873509 L72.5792095,27.8873509 L72.5792095,18.2025811 C72.5792095,14.9692084 72.2918467,12.8409124 71.7171212,11.8176932 C71.1423957,10.794474 70.1042654,10.2828644 68.6027303,10.2828644 C67.8364297,10.2828644 67.1892163,10.4568117 66.6610901,10.8047062 C66.132964,11.1526008 65.6980366,11.6897908 65.3563079,12.4162765 C65.232043,11.8228093 64.8799589,11.3188739 64.3000557,10.9044701 C63.7201525,10.4900663 63.0781168,10.2828644 62.3739486,10.2828644 C61.6697804,10.2828644 61.0329224,10.4798341 60.4633746,10.8737735 C59.8938268,11.2677129 59.4796103,11.802345 59.2207249,12.4776696 L59.2207249,12.4776696 L59.2207249,10.6972682 L55.91217,10.6972682 L55.91217,27.8873509 L59.6401192,27.8873509 Z M77.9441426,27.8873509 L77.9441426,16.8519317 C77.9441426,15.5729077 78.042519,14.7185197 78.2392719,14.2887676 C78.4360247,13.8590156 78.7932865,13.6441395 79.3110573,13.6441395 C79.828828,13.6441395 80.1912675,13.8641317 80.3983758,14.3041159 C80.6054841,14.7441002 80.7090382,15.5933721 80.7090382,16.8519317 L80.7090382,16.8519317 L80.7090382,27.8873509 L84.390388,27.8873509 L84.390388,16.8519317 C84.390388,15.5933721 84.4939422,14.7441002 84.7010504,14.3041159 C84.9081587,13.8641317 85.2705982,13.6441395 85.7883689,13.6441395 C86.3061397,13.6441395 86.6634015,13.8590156 86.8601543,14.2887676 C87.0569072,14.7185197 87.1552836,15.5729077 87.1552836,16.8519317 L87.1552836,16.8519317 L87.1552836,27.8873509 L90.8832328,27.8873509 L90.8832328,18.2025811 C90.8832328,14.9692084 90.5958701,12.8409124 90.0211446,11.8176932 C89.4464191,10.794474 88.4082888,10.2828644 86.9067537,10.2828644 C86.140453,10.2828644 85.4932396,10.4568117 84.9651135,10.8047062 C84.4369874,11.1526008 84.00206,11.6897908 83.6603313,12.4162765 C83.5360663,11.8228093 83.1839822,11.3188739 82.604079,10.9044701 C82.0241758,10.4900663 81.3821401,10.2828644 80.677972,10.2828644 C79.9738038,10.2828644 79.3369458,10.4798341 78.767398,10.8737735 C78.1978502,11.2677129 77.7836336,11.802345 77.5247483,12.4776696 L77.5247483,12.4776696 L77.5247483,10.6972682 L74.2161934,10.6972682 L74.2161934,27.8873509 L77.9441426,27.8873509 Z M96.2481659,27.8873509 L96.2481659,16.8519317 C96.2481659,15.5729077 96.3465424,14.7185197 96.5432952,14.2887676 C96.7400481,13.8590156 97.0973099,13.6441395 97.6150806,13.6441395 C98.1328513,13.6441395 98.4952908,13.8641317 98.7023991,14.3041159 C98.9095074,14.7441002 99.0130616,15.5933721 99.0130616,16.8519317 L99.0130616,16.8519317 L99.0130616,27.8873509 L102.694411,27.8873509 L102.694411,16.8519317 C102.694411,15.5933721 102.797966,14.7441002 103.005074,14.3041159 C103.212182,13.8641317 103.574622,13.6441395 104.092392,13.6441395 C104.610163,13.6441395 104.967425,13.8590156 105.164178,14.2887676 C105.360931,14.7185197 105.459307,15.5729077 105.459307,16.8519317 L105.459307,16.8519317 L105.459307,27.8873509 L109.187256,27.8873509 L109.187256,18.2025811 C109.187256,14.9692084 108.899893,12.8409124 108.325168,11.8176932 C107.750442,10.794474 106.712312,10.2828644 105.210777,10.2828644 C104.444476,10.2828644 103.797263,10.4568117 103.269137,10.8047062 C102.741011,11.1526008 102.306083,11.6897908 101.964355,12.4162765 C101.84009,11.8228093 101.488006,11.3188739 100.908102,10.9044701 C100.328199,10.4900663 99.6861635,10.2828644 98.9819953,10.2828644 C98.2778271,10.2828644 97.6409692,10.4798341 97.0714214,10.8737735 C96.5018736,11.2677129 96.087657,11.802345 95.8287716,12.4776696 L95.8287716,12.4776696 L95.8287716,10.6972682 L92.5202167,10.6972682 L92.5202167,27.8873509 L96.2481659,27.8873509 Z M119.957716,28.3324512 C121.179655,28.3324512 122.339461,28.2250132 123.437135,28.0101372 C124.534809,27.7952611 125.611772,27.4729471 126.668024,27.043195 L126.668024,27.043195 L126.668024,22.9145055 C125.559995,23.5591336 124.498565,24.0298145 123.483734,24.326548 C122.468904,24.6232816 121.43854,24.7716484 120.392643,24.7716484 C118.808265,24.7716484 117.617392,24.4391021 116.820025,23.7740097 C116.022658,23.1089172 115.618797,22.1010463 115.608442,20.7503969 L115.608442,20.7503969 L127.398081,20.7503969 L127.398081,18.9239506 C127.398081,16.1817232 126.686146,14.0559853 125.262277,12.5467369 C123.838407,11.0374886 121.837223,10.2828644 119.258725,10.2828644 C116.700938,10.2828644 114.681632,11.0963237 113.200808,12.7232422 C111.719983,14.3501608 110.979571,16.5654304 110.979571,19.369051 C110.979571,22.2647613 111.748461,24.482589 113.28624,26.0225339 C114.824019,27.5624788 117.047844,28.3324512 119.957716,28.3324512 Z M115.655041,17.3891218 C115.76895,16.2328841 116.136568,15.3401254 116.757893,14.7108455 C117.379217,14.0815657 118.212828,13.7669258 119.258725,13.7669258 C120.418532,13.7669258 121.296153,14.0713335 121.891589,14.680149 C122.487026,15.2889644 122.795099,16.1868392 122.81581,17.3737735 L122.81581,17.3737735 L115.655041,17.3891218 Z" id="slimmme" fill="#000000" fill-rule="nonzero"></path>
    </g>
</svg>